<svg xmlns="http://www.w3.org/2000/svg" viewBox="0 0 372 72" width="372" height="72" role="img" aria-label="Leeloo Code — freed-dev-llc/leeloo">
  <defs>
    <linearGradient id="bg" x1="0" y1="0" x2="0" y2="1"><stop offset="0" stop-color="#1A2C39"/><stop offset="1" stop-color="#0F1C25"/></linearGradient>
    <linearGradient id="node" x1="0" y1="0" x2="0" y2="1"><stop offset="0" stop-color="#6E9DBA"/><stop offset="1" stop-color="#4E7C97"/></linearGradient>
    <linearGradient id="cp" x1="0" y1="0" x2="0" y2="1"><stop offset="0" stop-color="#C4683F"/><stop offset="1" stop-color="#974124"/></linearGradient>
  </defs>

  <rect x="1" y="1" width="370" height="70" rx="16" fill="url(#bg)" stroke="#2C4C61" stroke-width="1.5"/>

  <!-- glyph: fifth-element spark -->
  <g transform="translate(16,12) scale(0.33)">
    <g stroke="#4E7C97" fill="none" stroke-linecap="round">
      <g opacity="0.5" stroke-width="3">
        <line x1="85" y1="72" x2="36" y2="36"/>
        <line x1="85" y1="72" x2="138" y2="36"/>
        <line x1="85" y1="72" x2="36" y2="120"/>
        <line x1="85" y1="72" x2="138" y2="120"/>
      </g>
      <g opacity="0.26" stroke-width="2">
        <line x1="36" y1="36" x2="138" y2="36"/>
        <line x1="138" y1="36" x2="138" y2="120"/>
        <line x1="138" y1="120" x2="36" y2="120"/>
        <line x1="36" y1="120" x2="36" y2="36"/>
      </g>
    </g>
    <g stroke="#EAF2F7" stroke-opacity="0.10" stroke-width="1">
      <rect x="18" y="18" width="36" height="36" rx="9" fill="url(#node)"/>
      <rect x="120" y="18" width="36" height="36" rx="9" fill="url(#node)"/>
      <rect x="18" y="102" width="36" height="36" rx="9" fill="url(#node)"/>
      <rect x="120" y="102" width="36" height="36" rx="9" fill="url(#node)"/>
      <rect x="65" y="52" width="40" height="40" rx="10" fill="url(#cp)"/>
    </g>
    <g>
      <circle cx="36" cy="36" r="5" fill="#EAF2F7" opacity="0.85"/>
      <circle cx="138" cy="36" r="5" fill="#EAF2F7" opacity="0.85"/>
      <circle cx="36" cy="120" r="5" fill="#EAF2F7" opacity="0.85"/>
      <circle cx="138" cy="120" r="5" fill="#EAF2F7" opacity="0.85"/>
      <circle cx="85" cy="72" r="6" fill="#FBEEE3" opacity="0.92"/>
    </g>
  </g>

  <!-- label -->
  <g font-family="'Segoe UI','SF Pro Display',system-ui,-apple-system,'Helvetica Neue',Arial,sans-serif">
    <text x="92" y="31" font-size="18" font-weight="700" letter-spacing="0.3" fill="#EAF2F7">Leeloo <tspan fill="#C4683F">Code</tspan></text>
    <text x="92" y="52" font-size="10.5" font-weight="500" letter-spacing="0.2" fill="#7FA6BC" font-family="'SF Mono',ui-monospace,Menlo,Consolas,monospace">freed-dev-llc/leeloo</text>
  </g>
</svg>
